<?xml version="1.0" encoding="UTF-8"?>
<!DOCTYPE svg PUBLIC "-//W3C//DTD SVG 1.1//EN" "http://www.w3.org/Graphics/SVG/1.1/DTD/svg11.dtd">
<svg xmlns="http://www.w3.org/2000/svg" version="1.1" width="200px" height="200px" style="shape-rendering:geometricPrecision; text-rendering:geometricPrecision; image-rendering:optimizeQuality; fill-rule:evenodd; clip-rule:evenodd" xmlns:xlink="http://www.w3.org/1999/xlink">
<g><path style="opacity:1" fill="#fefffe" d="M 29.5,27.5 C 53.155,27.664 74.9883,33.9973 95,46.5C 95.6667,81.5 95.6667,116.5 95,151.5C 74.1885,141.672 52.3552,135.338 29.5,132.5C 29.5,97.5 29.5,62.5 29.5,27.5 Z"/></g>
<g><path style="opacity:1" fill="#fefffe" d="M 156.5,27.5 C 160.833,27.5 165.167,27.5 169.5,27.5C 169.5,62.5 169.5,97.5 169.5,132.5C 146.645,135.338 124.812,141.672 104,151.5C 103.667,151.167 103.333,150.833 103,150.5C 102.333,116.5 102.333,82.5 103,48.5C 103.465,47.0692 104.299,45.9025 105.5,45C 121.625,36.2371 138.625,30.4038 156.5,27.5 Z"/></g>
<g><path style="opacity:1" fill="#fefffe" d="M 19.5,43.5 C 21.3276,74.484 22.161,105.817 22,137.5C 46.3482,140.378 69.5149,147.211 91.5,158C 86.9267,161.575 82.0933,164.742 77,167.5C 55.3481,158.628 32.8481,153.628 9.5,152.5C 9.33335,119.498 9.50002,86.4983 10,53.5C 13.3709,50.2975 16.5375,46.9641 19.5,43.5 Z"/></g>
<g><path style="opacity:1" fill="#fefffe" d="M 177.5,43.5 C 181.737,46.2281 185.571,49.5615 189,53.5C 189.5,86.4983 189.667,119.498 189.5,152.5C 166.152,153.628 143.652,158.628 122,167.5C 116.907,164.742 112.073,161.575 107.5,158C 129.19,146.993 152.19,140.493 176.5,138.5C 177.439,106.848 177.772,75.181 177.5,43.5 Z"/></g>
<g><path style="opacity:1" fill="#fefffe" d="M 97.5,162.5 C 103.619,163.77 108.952,166.603 113.5,171C 108.826,171.434 104.159,171.934 99.5,172.5C 94.8406,171.934 90.1739,171.434 85.5,171C 89.3912,167.899 93.3912,165.066 97.5,162.5 Z"/></g>
</svg>
