<?xml version="1.0" encoding="UTF-8"?>
<!DOCTYPE svg PUBLIC "-//W3C//DTD SVG 1.1//EN" "http://www.w3.org/Graphics/SVG/1.1/DTD/svg11.dtd">
<svg xmlns="http://www.w3.org/2000/svg" version="1.1" width="512px" height="512px" style="shape-rendering:geometricPrecision; text-rendering:geometricPrecision; image-rendering:optimizeQuality; fill-rule:evenodd; clip-rule:evenodd" xmlns:xlink="http://www.w3.org/1999/xlink">
<g><path style="opacity:1" fill="#fcfcf9" d="M 300.5,-0.5 C 303.833,-0.5 307.167,-0.5 310.5,-0.5C 360.294,21.224 410.294,42.724 460.5,64C 463.187,65.8749 465.021,68.3749 466,71.5C 466.942,92.5429 466.608,113.543 465,134.5C 455.696,155.387 440.196,161.887 418.5,154C 365.447,127.473 312.113,100.807 258.5,74C 254.047,71.9289 252.047,68.4289 252.5,63.5C 252.478,61.0351 252.978,58.7017 254,56.5C 269.508,37.4693 285.008,18.4693 300.5,-0.5 Z"/></g>
<g><path style="opacity:1" fill="#fcfcf9" d="M 228.5,82.5 C 229.873,82.3433 231.207,82.51 232.5,83C 292.172,112.502 351.506,142.502 410.5,173C 394.456,209.26 375.956,244.094 355,277.5C 328.341,319.16 291.508,347.66 244.5,363C 219.666,378.252 194.666,393.252 169.5,408C 144.712,417.312 123.545,412.145 106,392.5C 93.0394,371.915 93.3728,351.582 107,331.5C 109.833,328.667 112.667,325.833 115.5,323C 134.336,312.419 152.669,301.085 170.5,289C 176.675,285.412 183.009,282.078 189.5,279C 197.159,262.353 206.826,247.02 218.5,233C 205.8,229.544 193.633,224.71 182,218.5C 167.585,231.735 151.418,242.402 133.5,250.5C 140.134,259.914 144.3,270.247 146,281.5C 129.747,290.707 113.914,300.54 98.5,311C 92.1959,317.805 86.8626,325.305 82.5,333.5C 70.8395,312.181 59.6728,290.515 49,268.5C 41.909,250.019 43.5756,232.353 54,215.5C 68,192.167 82,168.833 96,145.5C 102.803,134.361 112.303,126.527 124.5,122C 159.46,109.296 194.127,96.1291 228.5,82.5 Z"/></g>
<g><path style="opacity:1" fill="#fcfcf9" d="M 147.5,511.5 C 139.167,511.5 130.833,511.5 122.5,511.5C 88.8471,504.013 68.3471,483.347 61,449.5C 57.4214,425.454 63.5881,404.454 79.5,386.5C 96.65,423.244 125.317,438.077 165.5,431C 170.613,429.277 175.613,427.277 180.5,425C 188.334,419.915 196.334,415.082 204.5,410.5C 216.479,445.413 208.145,474.579 179.5,498C 169.576,504.467 158.91,508.967 147.5,511.5 Z"/></g>
</svg>
