<?xml version="1.0" encoding="UTF-8"?>
<!DOCTYPE svg PUBLIC "-//W3C//DTD SVG 1.1//EN" "http://www.w3.org/Graphics/SVG/1.1/DTD/svg11.dtd">
<svg xmlns="http://www.w3.org/2000/svg" version="1.1" width="512px" height="512px" style="shape-rendering:geometricPrecision; text-rendering:geometricPrecision; image-rendering:optimizeQuality; fill-rule:evenodd; clip-rule:evenodd" xmlns:xlink="http://www.w3.org/1999/xlink">
<g><path style="opacity:1" fill="#fefffe" d="M 256.5,63.5 C 338.163,58.9109 400.663,90.9109 444,159.5C 473.982,215.28 477.315,272.613 454,331.5C 422.437,398.377 369.937,436.877 296.5,447C 235.709,452.075 183.709,433.409 140.5,391C 150.681,380.652 161.014,370.486 171.5,360.5C 218.051,403.311 271.384,414.478 331.5,394C 382.954,371.618 413.787,332.784 424,277.5C 430.617,217.254 409.784,169.087 361.5,133C 303.725,97.1291 246.391,97.7958 189.5,135C 149.669,165.16 129.336,205.327 128.5,255.5C 149.503,255.333 170.503,255.5 191.5,256C 162.96,284.874 134.127,313.374 105,341.5C 76.5386,313.371 48.3719,284.871 20.5,256C 41.8307,255.5 63.1641,255.333 84.5,255.5C 87.8568,172.569 126.857,113.402 201.5,78C 219.347,70.8053 237.68,65.972 256.5,63.5 Z"/></g>
<g><path style="opacity:1" fill="#fefffe" d="M 255.5,169.5 C 266.167,169.5 276.833,169.5 287.5,169.5C 287.167,199.841 287.5,230.174 288.5,260.5C 313.083,275.041 337.583,289.708 362,304.5C 361.968,306.598 361.301,308.598 360,310.5C 355.663,317.657 351.163,324.657 346.5,331.5C 316.203,313.699 286.036,295.699 256,277.5C 255.5,241.502 255.333,205.502 255.5,169.5 Z"/></g>
</svg>
