<?xml version="1.0" encoding="UTF-8"?>
<!DOCTYPE svg PUBLIC "-//W3C//DTD SVG 1.1//EN" "http://www.w3.org/Graphics/SVG/1.1/DTD/svg11.dtd">
<svg xmlns="http://www.w3.org/2000/svg" version="1.1" width="1024px" height="1024px" style="shape-rendering:geometricPrecision; text-rendering:geometricPrecision; image-rendering:optimizeQuality; fill-rule:evenodd; clip-rule:evenodd" xmlns:xlink="http://www.w3.org/1999/xlink">
<g><path style="opacity:1" fill="#fefffe" d="M 499.5,-0.5 C 507.5,-0.5 515.5,-0.5 523.5,-0.5C 530.312,1.27518 536.979,3.77518 543.5,7C 551.711,12.2759 559.377,18.2759 566.5,25C 612,70.5 657.5,116 703,161.5C 703.333,146.167 703.667,130.833 704,115.5C 710.617,87.216 728.117,70.0494 756.5,64C 785.167,63.3333 813.833,63.3333 842.5,64C 871.333,70.1667 888.833,87.6667 895,116.5C 895.333,195.833 895.667,275.167 896,354.5C 931,389.5 966,424.5 1001,459.5C 1011.92,471.01 1019.42,484.343 1023.5,499.5C 1023.5,507.5 1023.5,515.5 1023.5,523.5C 1017.01,551.486 999.68,568.653 971.5,575C 946.169,575.5 920.836,575.667 895.5,575.5C 895.667,707.167 895.5,838.834 895,970.5C 888.653,999.347 871.153,1017.01 842.5,1023.5C 774.833,1023.5 707.167,1023.5 639.5,1023.5C 639.667,916.833 639.5,810.166 639,703.5C 635.167,665 614,643.833 575.5,640C 532.833,639.333 490.167,639.333 447.5,640C 418.292,641.595 398.292,655.928 387.5,683C 385.259,689.641 384.093,696.474 384,703.5C 383.5,810.166 383.333,916.833 383.5,1023.5C 315.833,1023.5 248.167,1023.5 180.5,1023.5C 151.847,1017.01 134.347,999.347 128,970.5C 127.5,838.834 127.333,707.167 127.5,575.5C 102.164,575.667 76.8311,575.5 51.5,575C 23.3198,568.653 5.98644,551.486 -0.5,523.5C -0.5,515.5 -0.5,507.5 -0.5,499.5C 3.58288,484.343 11.0829,471.01 22,459.5C 166.833,314.667 311.667,169.833 456.5,25C 463.623,18.2759 471.289,12.2759 479.5,7C 486.021,3.77518 492.688,1.27518 499.5,-0.5 Z"/></g>
</svg>
