<?xml version="1.0" encoding="UTF-8"?>
<!DOCTYPE svg PUBLIC "-//W3C//DTD SVG 1.1//EN" "http://www.w3.org/Graphics/SVG/1.1/DTD/svg11.dtd">
<svg xmlns="http://www.w3.org/2000/svg" version="1.1" width="420px" height="128px" style="shape-rendering:geometricPrecision; text-rendering:geometricPrecision; image-rendering:optimizeQuality; fill-rule:evenodd; clip-rule:evenodd" xmlns:xlink="http://www.w3.org/1999/xlink">
<g><path style="opacity:0.953" fill="#447c17" d="M 17.5,7.5 C 19.475,8.64638 20.975,10.313 22,12.5C 22.4196,16.1914 22.9196,19.8581 23.5,23.5C 17.4439,24.4845 12.1106,23.1511 7.5,19.5C 5.36601,10.9662 8.69934,6.96618 17.5,7.5 Z"/></g>
<g><path style="opacity:0.936" fill="#42c083" d="M 17.5,7.5 C 37.3211,9.01329 52.6544,18.0133 63.5,34.5C 63.5,35.5 63.5,36.5 63.5,37.5C 60.032,43.0956 57.6987,49.0956 56.5,55.5C 56.1667,55.5 55.8333,55.5 55.5,55.5C 55.5,54.8333 55.1667,54.5 54.5,54.5C 50.8428,38.1762 40.8428,28.1762 24.5,24.5C 23.8333,24.5 23.5,24.1667 23.5,23.5C 22.9196,19.8581 22.4196,16.1914 22,12.5C 20.975,10.313 19.475,8.64638 17.5,7.5 Z"/></g>
<g><path style="opacity:0.936" fill="#fe6e26" d="M 110.5,7.5 C 108.525,8.64638 107.025,10.313 106,12.5C 105.68,16.2142 105.18,19.8809 104.5,23.5C 104.5,24.1667 104.167,24.5 103.5,24.5C 88.5,29.5 78.5,39.5 73.5,54.5C 73.5,55.1667 73.1667,55.5 72.5,55.5C 71.6236,55.6309 70.9569,55.2975 70.5,54.5C 69.2251,51.6272 68.3918,48.6272 68,45.5C 66.7627,42.5519 65.2627,39.8852 63.5,37.5C 63.5,36.5 63.5,35.5 63.5,34.5C 71.1354,23.0043 81.4687,14.8376 94.5,10C 99.7297,8.45373 105.063,7.62039 110.5,7.5 Z"/></g>
<g><path style="opacity:0.993" fill="#6a5823" d="M 110.5,7.5 C 115.314,6.5729 118.648,8.23956 120.5,12.5C 120.846,15.6021 120.179,18.4355 118.5,21C 113.923,22.232 109.256,23.0653 104.5,23.5C 105.18,19.8809 105.68,16.2142 106,12.5C 107.025,10.313 108.525,8.64638 110.5,7.5 Z"/></g>
<g><path style="opacity:0.933" fill="#68c5da" d="M 120.5,12.5 C 121.487,34.527 112.82,51.8604 94.5,64.5C 93.5,64.5 92.5,64.5 91.5,64.5C 85.7591,60.8058 79.4257,58.4724 72.5,57.5C 72.5,56.8333 72.5,56.1667 72.5,55.5C 73.1667,55.5 73.5,55.1667 73.5,54.5C 89.5138,50.4862 99.5138,40.4862 103.5,24.5C 104.167,24.5 104.5,24.1667 104.5,23.5C 109.256,23.0653 113.923,22.232 118.5,21C 120.179,18.4355 120.846,15.6021 120.5,12.5 Z"/></g>
<g><path style="opacity:0.934" fill="#fba12a" d="M 7.5,19.5 C 12.1106,23.1511 17.4439,24.4845 23.5,23.5C 23.5,24.1667 23.8333,24.5 24.5,24.5C 26.9126,35.4782 32.9126,43.9782 42.5,50C 46.203,52.354 50.203,53.854 54.5,54.5C 55.1667,54.5 55.5,54.8333 55.5,55.5C 55.5299,56.4972 55.0299,57.1639 54,57.5C 47.6391,58.7809 41.8058,61.1142 36.5,64.5C 35.8333,64.5 35.1667,64.5 34.5,64.5C 18.4682,53.7843 9.46815,38.7843 7.5,19.5 Z"/></g>
<g><path style="opacity:0.926" fill="#2c2d2c" d="M 283.5,27.5 C 284.5,27.5 285.5,27.5 286.5,27.5C 286.833,49.1769 286.5,70.8436 285.5,92.5C 276.537,94.887 267.537,95.0536 258.5,93C 251.887,89.9579 248.054,84.7912 247,77.5C 245.55,69.3237 246.883,61.657 251,54.5C 257.834,48.1665 265.667,46.4999 274.5,49.5C 275.167,42.8333 275.833,36.1667 276.5,29.5C 278.982,28.9329 281.316,28.2663 283.5,27.5 Z M 265.5,57.5 C 268.667,57.4001 271.667,58.0668 274.5,59.5C 275.498,67.8068 275.831,76.1401 275.5,84.5C 264.184,87.0125 258.184,82.5125 257.5,71C 257.807,64.855 260.474,60.355 265.5,57.5 Z"/></g>
<g><path style="opacity:0.852" fill="#2c2d2c" d="M 333.5,29.5 C 340.537,29.3646 343.37,32.6979 342,39.5C 340.179,42.9907 337.346,44.1574 333.5,43C 326.914,38.5067 326.914,34.0067 333.5,29.5 Z"/></g>
<g><path style="opacity:0.943" fill="#2c2d2c" d="M 158.5,34.5 C 167.173,34.3336 175.84,34.5002 184.5,35C 197.45,38.721 202.283,47.221 199,60.5C 196.512,66.5211 192.012,70.3544 185.5,72C 179.555,73.1621 173.555,73.6621 167.5,73.5C 167.5,80.1667 167.5,86.8333 167.5,93.5C 163.833,93.5 160.167,93.5 156.5,93.5C 155.864,73.5995 156.531,53.9328 158.5,34.5 Z M 167.5,44.5 C 172.93,44.161 178.264,44.661 183.5,46C 188.008,50.0532 188.674,54.7199 185.5,60C 179.834,62.7664 173.834,63.9331 167.5,63.5C 167.5,57.1667 167.5,50.8333 167.5,44.5 Z"/></g>
<g><path style="opacity:1" fill="#455315" d="M 63.5,37.5 C 65.2627,39.8852 66.7627,42.5519 68,45.5C 68.3918,48.6272 69.2251,51.6272 70.5,54.5C 70.9569,55.2975 71.6236,55.6309 72.5,55.5C 72.5,56.1667 72.5,56.8333 72.5,57.5C 72.81,60.7131 72.4767,63.7131 71.5,66.5C 71.7428,63.1174 71.0761,59.9508 69.5,57C 64.4145,55.6681 60.0812,56.8347 56.5,60.5C 56.5,58.8333 56.5,57.1667 56.5,55.5C 57.6987,49.0956 60.032,43.0956 63.5,37.5 Z"/></g>
<g><path style="opacity:0.908" fill="#2c2d2c" d="M 215.5,47.5 C 223.254,46.6766 230.087,48.6766 236,53.5C 236.862,55.087 237.529,56.7536 238,58.5C 238.667,69.8333 238.667,81.1667 238,92.5C 227.786,95.3174 217.619,95.1507 207.5,92C 202.339,86.2803 201.172,79.7803 204,72.5C 210.682,66.2604 218.515,64.2604 227.5,66.5C 228.155,62.6453 226.821,59.8119 223.5,58C 218.162,57.1214 212.996,57.6214 208,59.5C 207.174,56.2072 206.674,52.8738 206.5,49.5C 209.689,49.1417 212.689,48.475 215.5,47.5 Z M 217.5,74.5 C 220.833,74.5 224.167,74.5 227.5,74.5C 227.5,78.1667 227.5,81.8333 227.5,85.5C 224.15,85.665 220.817,85.4983 217.5,85C 212.232,81.5044 212.232,78.0044 217.5,74.5 Z"/></g>
<g><path style="opacity:0.918" fill="#2c2d2c" d="M 312.5,47.5 C 317.093,47.6742 321.426,48.6742 325.5,50.5C 324.731,53.5101 323.897,56.5101 323,59.5C 318.308,57.3306 313.474,56.9973 308.5,58.5C 308.5,70.1667 308.5,81.8333 308.5,93.5C 304.833,93.5 301.167,93.5 297.5,93.5C 297.5,79.1667 297.5,64.8333 297.5,50.5C 302.61,49.4121 307.61,48.4121 312.5,47.5 Z"/></g>
<g><path style="opacity:0.889" fill="#2c2d2c" d="M 367.5,47.5 C 372.846,47.5686 377.846,48.902 382.5,51.5C 390.778,46.5055 399.112,46.3388 407.5,51C 409.894,52.9522 411.394,55.4522 412,58.5C 413.301,70.1275 413.801,81.7942 413.5,93.5C 409.5,93.5 405.5,93.5 401.5,93.5C 401.666,83.1613 401.5,72.828 401,62.5C 397.735,57.1789 393.402,56.1789 388,59.5C 388.326,70.807 388.492,82.1403 388.5,93.5C 384.5,93.5 380.5,93.5 376.5,93.5C 376.666,83.1613 376.5,72.828 376,62.5C 373.402,57.7558 369.569,56.4224 364.5,58.5C 363.501,70.1477 363.168,81.8143 363.5,93.5C 359.5,93.5 355.5,93.5 351.5,93.5C 351.167,79.1512 351.501,64.8179 352.5,50.5C 357.564,49.1726 362.564,48.1726 367.5,47.5 Z"/></g>
<g><path style="opacity:0.934" fill="#2c2d2c" d="M 330.5,48.5 C 334.167,48.5 337.833,48.5 341.5,48.5C 341.5,63.5 341.5,78.5 341.5,93.5C 337.833,93.5 334.167,93.5 330.5,93.5C 330.5,78.5 330.5,63.5 330.5,48.5 Z"/></g>
<g><path style="opacity:1" fill="#050a00" d="M 71.5,66.5 C 71.5,67.1667 71.5,67.8333 71.5,68.5C 67.1339,73.1794 62.4673,73.5127 57.5,69.5C 56.701,66.5701 56.3677,63.5701 56.5,60.5C 60.0812,56.8347 64.4145,55.6681 69.5,57C 71.0761,59.9508 71.7428,63.1174 71.5,66.5 Z"/></g>
<g><path style="opacity:1" fill="#687e26" d="M 72.5,57.5 C 79.4257,58.4724 85.7591,60.8058 91.5,64.5C 85.2492,67.5769 78.9159,70.2436 72.5,72.5C 72.1667,72.5 71.8333,72.5 71.5,72.5C 71.5,71.1667 71.5,69.8333 71.5,68.5C 71.5,67.8333 71.5,67.1667 71.5,66.5C 72.4767,63.7131 72.81,60.7131 72.5,57.5 Z"/></g>
<g><path style="opacity:1" fill="#687c26" d="M 55.5,55.5 C 55.8333,55.5 56.1667,55.5 56.5,55.5C 56.5,57.1667 56.5,58.8333 56.5,60.5C 56.3677,63.5701 56.701,66.5701 57.5,69.5C 57.5,70.1667 57.5,70.8333 57.5,71.5C 56.8333,71.8333 56.1667,72.1667 55.5,72.5C 49.199,70.2725 42.8657,67.6058 36.5,64.5C 41.8058,61.1142 47.6391,58.7809 54,57.5C 55.0299,57.1639 55.5299,56.4972 55.5,55.5 Z"/></g>
<g><path style="opacity:0.936" fill="#67c6dc" d="M 34.5,64.5 C 35.1667,64.5 35.8333,64.5 36.5,64.5C 42.8657,67.6058 49.199,70.2725 55.5,72.5C 55.1667,73.1667 54.8333,73.8333 54.5,74.5C 38.8691,78.7976 28.8691,88.7976 24.5,104.5C 23.8333,104.5 23.5,104.833 23.5,105.5C 19.8183,105.335 16.1516,105.501 12.5,106C 10.313,107.025 8.64638,108.525 7.5,110.5C 8.80261,90.55 17.8026,75.2167 34.5,64.5 Z"/></g>
<g><path style="opacity:0.94" fill="#fba12a" d="M 91.5,64.5 C 92.5,64.5 93.5,64.5 94.5,64.5C 110.662,75.4721 119.662,90.8054 121.5,110.5C 120.164,108.693 118.497,107.193 116.5,106C 112.415,105.767 108.415,105.267 104.5,104.5C 104.5,103.833 104.167,103.5 103.5,103.5C 99.1986,87.8652 89.1986,77.8652 73.5,73.5C 72.8333,73.5 72.5,73.1667 72.5,72.5C 78.9159,70.2436 85.2492,67.5769 91.5,64.5 Z"/></g>
<g><path style="opacity:1" fill="#405013" d="M 71.5,68.5 C 71.5,69.8333 71.5,71.1667 71.5,72.5C 69.2294,79.7439 66.8961,87.0773 64.5,94.5C 64.1667,94.5 63.8333,94.5 63.5,94.5C 61.1003,86.9624 59.1003,79.2957 57.5,71.5C 57.5,70.8333 57.5,70.1667 57.5,69.5C 62.4673,73.5127 67.1339,73.1794 71.5,68.5 Z"/></g>
<g><path style="opacity:0.939" fill="#fd6e26" d="M 57.5,71.5 C 59.1003,79.2957 61.1003,86.9624 63.5,94.5C 52.7942,111.193 37.4609,120.193 17.5,121.5C 22.2155,117.384 24.2155,112.051 23.5,105.5C 23.5,104.833 23.8333,104.5 24.5,104.5C 40.1628,100.171 50.1628,90.1705 54.5,74.5C 54.8333,73.8333 55.1667,73.1667 55.5,72.5C 56.1667,72.1667 56.8333,71.8333 57.5,71.5 Z"/></g>
<g><path style="opacity:0.942" fill="#42c083" d="M 71.5,72.5 C 71.8333,72.5 72.1667,72.5 72.5,72.5C 72.5,73.1667 72.8333,73.5 73.5,73.5C 77.8333,89.1667 87.8333,99.1667 103.5,103.5C 104.167,103.5 104.5,103.833 104.5,104.5C 105.196,108.452 105.696,112.452 106,116.5C 107.73,118.402 109.563,120.069 111.5,121.5C 90.8001,120.991 75.1334,111.991 64.5,94.5C 66.8961,87.0773 69.2294,79.7439 71.5,72.5 Z"/></g>
<g><path style="opacity:0.967" fill="#695825" d="M 23.5,105.5 C 24.2155,112.051 22.2155,117.384 17.5,121.5C 9.77113,121.451 6.43779,117.785 7.5,110.5C 8.64638,108.525 10.313,107.025 12.5,106C 16.1516,105.501 19.8183,105.335 23.5,105.5 Z"/></g>
<g><path style="opacity:0.976" fill="#437c18" d="M 104.5,104.5 C 108.415,105.267 112.415,105.767 116.5,106C 118.497,107.193 120.164,108.693 121.5,110.5C 122.373,117.961 119.04,121.628 111.5,121.5C 109.563,120.069 107.73,118.402 106,116.5C 105.696,112.452 105.196,108.452 104.5,104.5 Z"/></g>
</svg>
