<?xml version="1.0" encoding="UTF-8"?>
<!DOCTYPE svg PUBLIC "-//W3C//DTD SVG 1.1//EN" "http://www.w3.org/Graphics/SVG/1.1/DTD/svg11.dtd">
<svg xmlns="http://www.w3.org/2000/svg" version="1.1" width="4096px" height="4096px" style="shape-rendering:geometricPrecision; text-rendering:geometricPrecision; image-rendering:optimizeQuality; fill-rule:evenodd; clip-rule:evenodd" xmlns:xlink="http://www.w3.org/1999/xlink">
<g><path style="opacity:1" fill="#003087" d="M 2727.5,1141.5 C 2727.17,1141.5 2726.83,1141.5 2726.5,1141.5C 2679.01,1118.06 2629.01,1102.56 2576.5,1095C 2537.36,1089.39 2498.02,1086.06 2458.5,1085C 2302.17,1084.33 2145.83,1084.33 1989.5,1085C 1958.52,1090.98 1938.68,1109.15 1930,1139.5C 1898.43,1339.16 1866.93,1538.83 1835.5,1738.5C 1807.46,1919.39 1778.79,2100.06 1749.5,2280.5C 1633.5,2280.67 1517.5,2280.5 1401.5,2280C 1369.7,2273.51 1355.53,2254.01 1359,2221.5C 1436.11,1733.18 1513.11,1244.85 1590,756.5C 1596.97,718.199 1619.47,695.032 1657.5,687C 1863.17,686.333 2068.83,686.333 2274.5,687C 2339.55,688.631 2403.55,697.631 2466.5,714C 2526.51,729.505 2580.18,756.838 2627.5,796C 2707.4,871.375 2743.23,964.208 2735,1074.5C 2733.81,1097.03 2731.31,1119.36 2727.5,1141.5 Z"/></g>
<g><path style="opacity:1" fill="#012169" d="M 2726.5,1141.5 C 2713.85,1232.94 2685.69,1319.27 2642,1400.5C 2568.42,1527.7 2460.58,1611.2 2318.5,1651C 2261.15,1666.61 2202.82,1676.28 2143.5,1680C 2063.51,1681.26 1983.51,1681.93 1903.5,1682C 1869.74,1687.6 1847.07,1706.44 1835.5,1738.5C 1866.93,1538.83 1898.43,1339.16 1930,1139.5C 1938.68,1109.15 1958.52,1090.98 1989.5,1085C 2145.83,1084.33 2302.17,1084.33 2458.5,1085C 2498.02,1086.06 2537.36,1089.39 2576.5,1095C 2629.01,1102.56 2679.01,1118.06 2726.5,1141.5 Z"/></g>
<g><path style="opacity:0.999" fill="#009bdd" d="M 2726.5,1141.5 C 2726.83,1141.5 2727.17,1141.5 2727.5,1141.5C 2803.45,1181.67 2850.62,1244 2869,1328.5C 2877.9,1375.19 2879.9,1422.19 2875,1469.5C 2867.08,1546.87 2847.74,1621.2 2817,1692.5C 2757.37,1823.6 2658.54,1910.1 2520.5,1952C 2464.62,1968.13 2407.62,1977.46 2349.5,1980C 2315.18,1981.07 2280.84,1981.74 2246.5,1982C 2219.6,1986.9 2201.1,2002.07 2191,2027.5C 2188.57,2036.74 2186.57,2046.07 2185,2055.5C 2166.56,2171.82 2148.23,2288.15 2130,2404.5C 2128.2,2436.64 2113.04,2459.8 2084.5,2474C 2076.45,2477.1 2068.12,2478.76 2059.5,2479C 1961.83,2479.67 1864.17,2479.67 1766.5,2479C 1741.4,2476.13 1727.74,2462.13 1725.5,2437C 1733.01,2384.75 1741.01,2332.59 1749.5,2280.5C 1778.79,2100.06 1807.46,1919.39 1835.5,1738.5C 1847.07,1706.44 1869.74,1687.6 1903.5,1682C 1983.51,1681.93 2063.51,1681.26 2143.5,1680C 2202.82,1676.28 2261.15,1666.61 2318.5,1651C 2460.58,1611.2 2568.42,1527.7 2642,1400.5C 2685.69,1319.27 2713.85,1232.94 2726.5,1141.5 Z"/></g>
<g><path style="opacity:0.994" fill="#002f87" d="M 787.5,2676.5 C 870.18,2676.05 952.847,2676.55 1035.5,2678C 1154.25,2688.31 1205.08,2752.48 1188,2870.5C 1182.3,2912.2 1167.97,2950.54 1145,2985.5C 1112.67,3028.61 1069.83,3055.44 1016.5,3066C 1001.64,3069.03 986.639,3071.03 971.5,3072C 939.5,3072.33 907.5,3072.67 875.5,3073C 860.124,3075.38 850.958,3084.21 848,3099.5C 840.333,3148.17 832.667,3196.83 825,3245.5C 822.27,3258.56 814.437,3266.73 801.5,3270C 763.833,3270.67 726.167,3270.67 688.5,3270C 679.933,3267.4 675.266,3261.57 674.5,3252.5C 703.664,3068.18 732.83,2883.85 762,2699.5C 765.978,2686.68 774.478,2679.02 787.5,2676.5 Z M 905.5,2796.5 C 924.503,2796.33 943.503,2796.5 962.5,2797C 1019.74,2800.62 1041.24,2830.45 1027,2886.5C 1020.15,2918.68 1000.98,2939.18 969.5,2948C 961.252,2949.87 952.919,2951.21 944.5,2952C 920.184,2953.28 895.851,2953.78 871.5,2953.5C 878.565,2905.11 886.065,2856.78 894,2808.5C 895.08,2806 896.414,2803.67 898,2801.5C 900.479,2799.69 902.979,2798.02 905.5,2796.5 Z"/></g>
<g><path style="opacity:0.996" fill="#009cde" d="M 2309.5,2676.5 C 2392.18,2676.05 2474.85,2676.55 2557.5,2678C 2680.36,2689.89 2730.86,2756.72 2709,2878.5C 2687.74,2998.76 2616.24,3063.26 2494.5,3072C 2462.17,3072.33 2429.83,3072.67 2397.5,3073C 2381.25,3075.58 2372.09,3085.08 2370,3101.5C 2362,3152.17 2354,3202.83 2346,3253.5C 2343.94,3261.89 2338.77,3267.39 2330.5,3270C 2290.5,3270.67 2250.5,3270.67 2210.5,3270C 2199.66,3265.82 2195.49,3257.99 2198,3246.5C 2226.57,3064.82 2255.24,2883.15 2284,2701.5C 2287.13,2687.53 2295.63,2679.2 2309.5,2676.5 Z M 2428.5,2796.5 C 2450.86,2796.12 2473.19,2796.62 2495.5,2798C 2509.22,2799.35 2521.88,2803.68 2533.5,2811C 2547.2,2822.74 2553.87,2837.74 2553.5,2856C 2552.81,2873.43 2549.31,2890.27 2543,2906.5C 2531.79,2930.03 2513.29,2944.19 2487.5,2949C 2480.88,2950.28 2474.21,2951.28 2467.5,2952C 2442.85,2953.27 2418.18,2953.77 2393.5,2953.5C 2400.86,2905.82 2408.36,2858.16 2416,2810.5C 2417.95,2803.72 2422.12,2799.05 2428.5,2796.5 Z"/></g>
<g><path style="opacity:0.995" fill="#009cde" d="M 3299.5,2676.5 C 3334.83,2676.33 3370.17,2676.5 3405.5,2677C 3414.74,2679.74 3419.74,2685.9 3420.5,2695.5C 3391.11,2880.84 3361.61,3066.17 3332,3251.5C 3327.48,3261.36 3319.98,3267.52 3309.5,3270C 3276.5,3270.67 3243.5,3270.67 3210.5,3270C 3199.35,3265.54 3195.19,3257.37 3198,3245.5C 3227,3061.17 3256,2876.83 3285,2692.5C 3286.91,2684.43 3291.74,2679.09 3299.5,2676.5 Z"/></g>
<g><path style="opacity:0.994" fill="#002f87" d="M 1377.5,2864.5 C 1409.3,2862.94 1440.3,2867.11 1470.5,2877C 1491.18,2884.35 1507.01,2897.51 1518,2916.5C 1519.76,2906.52 1521.43,2896.52 1523,2886.5C 1524.83,2880.67 1528.67,2876.83 1534.5,2875C 1572.5,2874.33 1610.5,2874.33 1648.5,2875C 1656.49,2878.3 1660.83,2884.3 1661.5,2893C 1642.51,3011.43 1623.68,3129.93 1605,3248.5C 1601.73,3260.1 1594.23,3267.27 1582.5,3270C 1546.77,3270.98 1511.11,3270.65 1475.5,3269C 1470.88,3266.38 1467.72,3262.55 1466,3257.5C 1466.35,3246.09 1467.35,3234.76 1469,3223.5C 1430.07,3260.95 1383.41,3279.95 1329,3280.5C 1229.87,3278.03 1173.53,3227.7 1160,3129.5C 1155.18,3056.29 1176.85,2992.29 1225,2937.5C 1266.59,2893.96 1317.42,2869.62 1377.5,2864.5 Z M 1412.5,2973.5 C 1441.61,2972.69 1465.77,2983.02 1485,3004.5C 1502.02,3031 1505.69,3059.34 1496,3089.5C 1479.9,3136.8 1447.06,3163.63 1397.5,3170C 1371.02,3173.38 1347.02,3167.38 1325.5,3152C 1304.28,3131.68 1295.78,3106.84 1300,3077.5C 1311.18,3014.15 1348.68,2979.48 1412.5,2973.5 Z"/></g>
<g><path style="opacity:0.995" fill="#009cde" d="M 2899.5,2864.5 C 2929.45,2863.08 2958.78,2866.58 2987.5,2875C 3010.29,2881.8 3027.79,2895.3 3040,2915.5C 3042.18,2905.55 3044.18,2895.55 3046,2885.5C 3048.26,2880.24 3052.09,2876.74 3057.5,2875C 3095.17,2874.33 3132.83,2874.33 3170.5,2875C 3181.43,2879.87 3185.43,2888.2 3182.5,2900C 3164.33,3015.17 3146.17,3130.33 3128,3245.5C 3125.27,3258.56 3117.44,3266.73 3104.5,3270C 3069.11,3270.98 3033.77,3270.65 2998.5,3269C 2991.64,3265.46 2987.98,3259.8 2987.5,3252C 2989.49,3242.9 2990.66,3233.73 2991,3224.5C 2951.89,3260.95 2905.39,3279.62 2851.5,3280.5C 2750.29,3277.79 2693.79,3226.12 2682,3125.5C 2678.38,3043.97 2706.22,2975.47 2765.5,2920C 2804.18,2887.16 2848.84,2868.66 2899.5,2864.5 Z M 2934.5,2973.5 C 2994.67,2975.5 3024.17,3006.5 3023,3066.5C 3013.92,3125.91 2979.75,3160.41 2920.5,3170C 2893.22,3173.35 2868.55,3167.01 2846.5,3151C 2825.3,3129.4 2817.47,3103.57 2823,3073.5C 2830.7,3029.23 2855.2,2998.4 2896.5,2981C 2908.99,2976.87 2921.66,2974.37 2934.5,2973.5 Z"/></g>
<g><path style="opacity:0.994" fill="#002f87" d="M 1722.5,2874.5 C 1760.5,2874.33 1798.5,2874.5 1836.5,2875C 1846.79,2877.56 1853.96,2883.73 1858,2893.5C 1877.86,2960.29 1898.03,3026.95 1918.5,3093.5C 1966.57,3023.71 2014.4,2953.71 2062,2883.5C 2066.36,2879.24 2071.52,2876.4 2077.5,2875C 2115.83,2874.33 2154.17,2874.33 2192.5,2875C 2203.46,2879.76 2207.3,2887.93 2204,2899.5C 2088.61,3067.55 1972.45,3235.05 1855.5,3402C 1851.78,3404.53 1847.78,3406.53 1843.5,3408C 1804.83,3408.67 1766.17,3408.67 1727.5,3408C 1717.81,3404.13 1713.64,3396.96 1715,3386.5C 1715.72,3384.05 1716.72,3381.72 1718,3379.5C 1753.62,3329.75 1789.12,3279.92 1824.5,3230C 1786.28,3119.33 1748.44,3008.5 1711,2897.5C 1709.02,2886.79 1712.85,2879.12 1722.5,2874.5 Z"/></g>
</svg>
