<?xml version="1.0" encoding="UTF-8"?>
<!DOCTYPE svg PUBLIC "-//W3C//DTD SVG 1.1//EN" "http://www.w3.org/Graphics/SVG/1.1/DTD/svg11.dtd">
<svg xmlns="http://www.w3.org/2000/svg" version="1.1" width="512px" height="512px" style="shape-rendering:geometricPrecision; text-rendering:geometricPrecision; image-rendering:optimizeQuality; fill-rule:evenodd; clip-rule:evenodd" xmlns:xlink="http://www.w3.org/1999/xlink">
<g><path style="opacity:0.986" fill="#00bdad" d="M 243.5,30.5 C 262.835,27.9973 280.502,32.164 296.5,43C 328.139,73.6386 359.472,104.639 390.5,136C 373.918,135.446 358.584,139.446 344.5,148C 318.195,173.305 292.195,198.972 266.5,225C 261.167,228.333 255.833,228.333 250.5,225C 225.139,199.305 199.472,173.972 173.5,149C 157.721,138.888 140.388,134.388 121.5,135.5C 150.653,105.847 179.986,76.3471 209.5,47C 219.461,38.5188 230.794,33.0188 243.5,30.5 Z"/></g>
<g><path style="opacity:0.989" fill="#00bdad" d="M 101.5,154.5 C 115.468,155.281 129.468,155.781 143.5,156C 152.101,157.801 159.767,161.468 166.5,167C 190.833,191.333 215.167,215.667 239.5,240C 252.704,248.788 265.704,248.454 278.5,239C 303.861,213.305 329.528,187.972 355.5,163C 361.399,159.478 367.732,157.145 374.5,156C 385.879,155.812 397.213,155.312 408.5,154.5C 427.153,172.653 445.653,190.986 464,209.5C 482.84,234.086 485.84,260.419 473,288.5C 470.247,293.008 467.247,297.341 464,301.5C 445.653,320.014 427.153,338.347 408.5,356.5C 397.213,355.688 385.879,355.188 374.5,355C 367.732,353.855 361.399,351.522 355.5,348C 329.528,323.028 303.861,297.695 278.5,272C 265.729,263.732 252.729,263.398 239.5,271C 213.442,297.726 186.776,323.726 159.5,349C 154.466,351.789 149.132,353.789 143.5,355C 129.967,355.193 116.467,355.693 103,356.5C 82.3456,337.179 62.3456,317.179 43,296.5C 30.279,277.446 26.9456,256.779 33,234.5C 35.2789,227.276 38.6122,220.609 43,214.5C 62.3399,194.327 81.8399,174.327 101.5,154.5 Z"/></g>
<g><path style="opacity:0.986" fill="#00bdad" d="M 255.5,283.5 C 259.346,283.545 263.013,284.378 266.5,286C 291.167,310.667 315.833,335.333 340.5,360C 355.322,370.827 371.989,375.827 390.5,375C 359.472,406.361 328.139,437.361 296.5,468C 277.446,480.721 256.779,484.054 234.5,478C 227.276,475.721 220.609,472.388 214.5,468C 183.014,437.681 152.014,406.848 121.5,375.5C 140.388,376.612 157.721,372.112 173.5,362C 199.472,337.028 225.139,311.695 250.5,286C 252.315,285.243 253.981,284.41 255.5,283.5 Z"/></g>
</svg>
