<?xml version="1.0" encoding="UTF-8"?>
<!DOCTYPE svg PUBLIC "-//W3C//DTD SVG 1.1//EN" "http://www.w3.org/Graphics/SVG/1.1/DTD/svg11.dtd">
<svg xmlns="http://www.w3.org/2000/svg" version="1.1" width="512px" height="512px" style="shape-rendering:geometricPrecision; text-rendering:geometricPrecision; image-rendering:optimizeQuality; fill-rule:evenodd; clip-rule:evenodd" xmlns:xlink="http://www.w3.org/1999/xlink">
<g><path style="opacity:1" fill="#fefffe" d="M 100.5,-0.5 C 203.833,-0.5 307.167,-0.5 410.5,-0.5C 430.357,5.15685 442.524,18.1569 447,38.5C 447.667,186.5 447.667,334.5 447,482.5C 442.686,497.314 433.186,506.981 418.5,511.5C 412.5,511.5 406.5,511.5 400.5,511.5C 395.324,509.579 390.324,507.079 385.5,504C 347.167,465.667 308.833,427.333 270.5,389C 261.083,382.116 251.416,381.783 241.5,388C 202.833,426.667 164.167,465.333 125.5,504C 120.676,507.079 115.676,509.579 110.5,511.5C 104.5,511.5 98.5,511.5 92.5,511.5C 77.8145,506.981 68.3145,497.314 64,482.5C 63.3333,334.5 63.3333,186.5 64,38.5C 68.4727,18.1701 80.6394,5.1701 100.5,-0.5 Z"/></g>
</svg>
